<?xml version="1.0" standalone="no"?>
<!DOCTYPE svg PUBLIC "-//W3C//DTD SVG 20010904//EN"
 "http://www.w3.org/TR/2001/REC-SVG-20010904/DTD/svg10.dtd">
<svg version="1.0" xmlns="http://www.w3.org/2000/svg"
 width="512.000000pt" height="512.000000pt" viewBox="0 0 512.000000 512.000000"
 preserveAspectRatio="xMidYMid meet">

<g transform="translate(0.000000,512.000000) scale(0.100000,-0.100000)"
fill="#000000" stroke="none">
<path d="M1630 3685 c-183 -61 -306 -317 -273 -568 28 -203 137 -360 282 -403
167 -50 342 91 401 322 38 148 19 335 -47 456 -85 156 -234 235 -363 193z"/>
<path d="M3343 3686 c-169 -55 -283 -251 -283 -486 0 -403 328 -637 560 -400
98 100 144 229 144 400 0 129 -15 196 -67 294 -81 152 -229 233 -354 192z"/>
<path d="M1235 1895 c-14 -13 -25 -35 -25 -48 0 -55 212 -303 365 -426 272
-219 581 -335 925 -347 80 -3 176 -2 214 3 l69 8 -2 95 c-2 92 12 181 43 284
l15 48 -57 -6 c-150 -15 -237 -17 -357 -7 -259 21 -509 91 -770 213 -106 50
-284 151 -334 190 -32 25 -57 23 -86 -7z"/>
</g>
</svg>
